# xmcd
# 
# Track frame offsets:
#     150
#     35980
#     76040
#     98590
#     140015
#     180680
#     212933
#     241813
# 
# Disc length: 3869
# 
# Revision: 2
# Processed by: cddbd v1.5.2PL0 Copyright (c) Steve Scherf et al.
# Submitted via: BonkEnc v1.0.8
# 
DISCID=690f1b08
DTITLE=Lew Soloff - Little Wing
DYEAR=1991
DGENRE=Fusion
TTITLE0=La Toalla
TTITLE1=True Confessions
TTITLE2=Alligatory Crocodile
TTITLE3=Healing Power
TTITLE4=Para Los Papines
TTITLE5=Coral Canyon
TTITLE6=Tapajack
TTITLE7=Little Wing
EXTD=
EXTT0=
EXTT1=
EXTT2=
EXTT3=
EXTT4=
EXTT5=
EXTT6=
EXTT7=
PLAYORDER=
